Video
ID                               : 1
Format                           : AVC
Format/Info                      : Advanced Video Codec
Format profile                   : High@L3.1
Format settings, CABAC           : Yes
Format settings, ReFrames        : 1 frame
Codec ID                         : avc1
Codec ID/Info                    : Advanced Video Coding
Duration                         : 3mn 34s
Bit rate mode                    : Variable
Bit rate                         : 2 781 Kbps
Maximum bit rate                 : 5 719 Kbps
Width                            : 1 280 pixels
Height                           : 720 pixels
Display aspect ratio             : 16:9
Frame rate mode                  : Variable
Frame rate                       : 23.976 fps
Minimum frame rate               : 23.810 fps
Maximum frame rate               : 24.390 fps
Color space                      : YUV
Chroma subsampling               : 4:2:0
Bit depth                        : 8 bits
Scan type                        : Progressive
Bits/(Pixel*Frame)               : 0.126
Stream size                      : 71.1 MiB (95%)
Tagged date                      : UTC 2011-06-27 01:06:10

Audio
ID                               : 2
Format                           : AAC
Format/Info                      : Advanced Audio Codec
Format version                   : Version 4
Format profile                   : LC
Codec ID                         : 40
Duration                         : 3mn 34s
Bit rate mode                    : Variable
Bit rate                         : 149 Kbps
Maximum bit rate                 : 232 Kbps
Channel(s)                       : 2 channels
Channel positions                : Front: L R
Sampling rate                    : 44.1 KHz
Stream size                      : 3.82 MiB (5%)
Title                            : IsoMedia File Produced by Google, 5-11-2011
Encoded date                     : UTC 2011-06-27 01:06:10
Tagged date                      : UTC 2011-06-27 01:06:10

SEED YOU GUYS!

-manurie